# xmcd
#
# Track frame offsets:
#	150
#	14142
#	30287
#	43215
#	56284
#	74042
#	90436
#	109067
#	124930
#	140346
#	154450
#	169670
#	185047
#
# Disc length: 2661 seconds
#
# Revision: 0
# Processed by: cddbd v1.5.2PL0 Copyright (c) Steve Scherf et al.
# Submitted via: dBpowerAMP V4.0
#
DISCID=b80a630d
DTITLE=varios - batidao sertanejo
DYEAR=2010
DGENRE=Country
TTITLE0=joao bosco e vinicius- chora e me liga
TTITLE1=luan santana -voce nao sabe o que e amor
TTITLE2=ricardo e eduardo - beijo me liga
TTITLE3=hugo pena e gabriel - mala pronta
TTITLE4=cesar menotti e fabiano -tarde demais
TTITLE5=banda necheville -por toda vida
TTITLE6=rud e robson -tatuagem
TTITLE7=carlos e jader -e dai
TTITLE8=fernando e sorocaba -vendaval
TTITLE9=michel telo - amanha sei la
TTITLE10=ulisses - meu grande amor
TTITLE11=pedro paulo e mateus-eu vou te buscar
TTITLE12=tonny e cleber - festa do vardomiro
EXTD=
EXTT0=
EXTT1=
EXTT2=
EXTT3=
EXTT4=
EXTT5=
EXTT6=
EXTT7=
EXTT8=
EXTT9=
EXTT10=
EXTT11=
EXTT12=
PLAYORDER=
